<svg width="187" height="163" viewBox="0 0 187 163" fill="none" xmlns="http://www.w3.org/2000/svg">
  <path fill-rule="evenodd" clip-rule="evenodd"
    d="M107.105 138H25.1C19.3281 138 14.6035 133.261 14.6035 127.47V10.5275C14.6035 4.73619 19.3281 0 25.1 0H107.105C112.879 0 117.604 4.73619 117.604 10.5275V127.47C117.604 133.261 112.879 138 107.105 138Z"
    fill="#E0E2EE" />
  <path fill-rule="evenodd" clip-rule="evenodd"
    d="M100.105 143H18.1C12.3281 143 7.60352 138.261 7.60352 132.47V15.5275C7.60352 9.73619 12.3281 5 18.1 5H100.105C105.879 5 110.604 9.73619 110.604 15.5275V132.47C110.604 138.261 105.879 143 100.105 143Z"
    fill="#E8EBF2" />
  <path fill-rule="evenodd" clip-rule="evenodd"
    d="M93.2959 146.947H11.1217C5.33788 146.947 0.603516 142.228 0.603516 136.461V20.0025C0.603516 14.2352 5.33788 9.51863 11.1217 9.51863H93.2959C99.0821 9.51863 103.816 14.2352 103.816 20.0025V136.461C103.816 142.228 99.0821 146.947 93.2959 146.947Z"
    fill="#D8DBEA" />
  <path fill-rule="evenodd" clip-rule="evenodd"
    d="M93.2959 146.947H11.1217C5.33788 146.947 0.603516 142.228 0.603516 136.461V20.0025C0.603516 14.2352 5.33788 9.51863 11.1217 9.51863H93.2959C99.0821 9.51863 103.816 14.2352 103.816 20.0025V136.461C103.816 142.228 99.0821 146.947 93.2959 146.947Z"
    fill="#F1F2F7" />
  <path fill-rule="evenodd" clip-rule="evenodd"
    d="M81.4513 45H20.7557C19.0224 45 17.6035 43.6502 17.6035 42.0011C17.6035 40.3498 19.0224 39 20.7557 39H81.4513C83.1847 39 84.6035 40.3498 84.6035 42.0011C84.6035 43.6502 83.1847 45 81.4513 45Z"
    fill="#E0E2EE" />
  <path fill-rule="evenodd" clip-rule="evenodd"
    d="M81.4513 63H20.7557C19.0224 63 17.6035 61.6502 17.6035 60.0011C17.6035 58.3498 19.0224 57 20.7557 57H81.4513C83.1847 57 84.6035 58.3498 84.6035 60.0011C84.6035 61.6502 83.1847 63 81.4513 63Z"
    fill="#E0E2EE" />
  <path fill-rule="evenodd" clip-rule="evenodd"
    d="M81.4513 81H20.7557C19.0224 81 17.6035 79.6502 17.6035 78.0011C17.6035 76.3521 19.0224 75 20.7557 75H81.4513C83.1847 75 84.6035 76.3521 84.6035 78.0011C84.6035 79.6502 83.1847 81 81.4513 81Z"
    fill="#E0E2EE" />
  <path fill-rule="evenodd" clip-rule="evenodd"
    d="M81.4513 99H20.7557C19.0224 99 17.6035 97.6502 17.6035 96.0011C17.6035 94.3498 19.0224 93 20.7557 93H81.4513C83.1847 93 84.6035 94.3498 84.6035 96.0011C84.6035 97.6502 83.1847 99 81.4513 99Z"
    fill="#E0E2EE" />
  <path fill-rule="evenodd" clip-rule="evenodd"
    d="M52.4378 117H20.7692C19.0284 117 17.6035 115.65 17.6035 114.001C17.6035 112.35 19.0284 111 20.7692 111H52.4378C54.1786 111 55.6035 112.35 55.6035 114.001C55.6035 115.65 54.1786 117 52.4378 117Z"
    fill="#E0E2EE" />
  <path fill-rule="evenodd" clip-rule="evenodd"
    d="M116.358 93.7368C104.222 105.871 85.4327 107.24 71.7919 97.8715C70.0487 96.6527 68.3894 95.2838 66.8421 93.7368C66.0455 92.9429 65.2948 92.1236 64.5873 91.261C63.1723 89.5384 61.9329 87.7013 60.9175 85.8031C59.1284 82.597 57.912 79.1951 57.2477 75.6786C55.1049 64.6508 58.309 52.7808 66.8421 44.2517C75.3955 35.6971 87.2675 32.514 98.2972 34.6361C101.812 35.3206 105.217 36.5368 108.423 38.3052C110.324 39.3434 112.136 40.5826 113.862 41.9973C114.722 42.7021 115.542 43.4553 116.336 44.2517C117.885 45.7987 119.275 47.4552 120.471 49.2007C129.844 62.8366 128.472 81.625 116.358 93.7368Z"
    fill="white" fill-opacity="0.1" />
  <path fill-rule="evenodd" clip-rule="evenodd"
    d="M112.962 91.3468C100.336 103.976 79.8734 103.973 67.2444 91.3468C54.6319 78.7343 54.6319 58.2696 67.2609 45.643C79.8734 33.0305 100.336 33.0305 112.948 45.643C125.575 58.2696 125.575 78.7343 112.962 91.3468ZM119.442 39.1555C103.235 22.9482 76.9716 22.9482 60.7643 39.1555C44.5593 55.3605 44.5452 81.6405 60.7502 97.8478C75.5008 112.594 98.6206 113.924 114.882 101.816C116.47 100.632 118 99.3046 119.459 97.8478C120.916 96.3887 122.243 94.8592 123.425 93.2709C135.532 77.0071 134.191 53.9038 119.442 39.1555Z"
    fill="#E0E2EE" />
  <path fill-rule="evenodd" clip-rule="evenodd"
    d="M183.226 158.942L182.545 159.622C178.044 164.126 170.672 164.126 166.168 159.622L124.604 118.057L141.661 101L183.226 142.565C187.729 147.069 187.729 154.438 183.226 158.942Z"
    fill="url(#paint0_linear_86_9585)" />
  <path fill-rule="evenodd" clip-rule="evenodd"
    d="M124.321 92L136.604 104.283L127.884 113L115.604 100.717C117.224 99.5091 118.783 98.1545 120.274 96.668C121.76 95.1815 123.115 93.6207 124.321 92Z"
    fill="#E0E2EE" />
  <path fill-rule="evenodd" clip-rule="evenodd"
    d="M182.604 142.054L165.655 159L162.604 155.946L179.55 139L182.604 142.054Z" fill="#282828" />
  <path fill-rule="evenodd" clip-rule="evenodd"
    d="M142.604 101.587L125.191 119L122.604 116.413L140.016 99L142.604 101.587Z"
    fill="url(#paint1_linear_86_9585)" />
  <path fill-rule="evenodd" clip-rule="evenodd"
    d="M104.604 41.2986L61.9 84C60.2918 81.1177 59.1983 78.0593 58.6035 74.8979L95.501 38C98.6602 38.6176 101.721 39.7088 104.604 41.2986Z"
    fill="white" fill-opacity="0.5" />
  <path fill-rule="evenodd" clip-rule="evenodd"
    d="M118.604 51.4484L72.4364 95C70.7831 93.9116 69.2094 92.6866 67.742 91.3022C66.9865 90.5895 66.2721 89.8586 65.6035 89.0867L112.333 45C113.151 45.633 113.928 46.307 114.681 47.0197C116.149 48.4041 117.469 49.8864 118.604 51.4484Z"
    fill="white" fill-opacity="0.5" />
  <defs>
    <linearGradient id="paint0_linear_86_9585" x1="155.604" y1="70" x2="93.6035" y2="132"
      gradientUnits="userSpaceOnUse">
      <stop stop-color="#F5D473" />
      <stop offset="1" stop-color="#F5D473" />
    </linearGradient>
    <linearGradient id="paint1_linear_86_9585" x1="132.604" y1="89" x2="112.604" y2="109"
      gradientUnits="userSpaceOnUse">
      <stop stop-color="#F5D473" />
      <stop offset="1" stop-color="#F5D473" />
    </linearGradient>
  </defs>
</svg>